<svg width="327" height="72" viewBox="0 0 327 72" fill="none" xmlns="http://www.w3.org/2000/svg">
<path d="M6.69297 42.145H8.68323C8.73104 42.5873 8.90437 42.9877 9.20321 43.3463C9.514 43.693 9.92042 43.9679 10.4225 44.1711C10.9365 44.3624 11.5222 44.458 12.1796 44.458C12.7654 44.458 13.2495 44.3863 13.632 44.2428C14.0145 44.0994 14.2954 43.9022 14.4747 43.6511C14.666 43.3882 14.7616 43.0833 14.7616 42.7367C14.7616 42.39 14.648 42.1211 14.4209 41.9298C14.2057 41.7266 13.871 41.5593 13.4168 41.4278C12.9626 41.2843 12.3828 41.1469 11.6776 41.0154C11.0919 40.9078 10.5241 40.7644 9.97421 40.5851C9.42435 40.4058 8.92828 40.1786 8.486 39.9037C8.05567 39.6288 7.715 39.2941 7.46397 38.8996C7.21295 38.4932 7.08744 38.0151 7.08744 37.4652C7.08744 36.8436 7.26076 36.2818 7.60742 35.7798C7.96602 35.2777 8.49197 34.8832 9.18528 34.5964C9.87858 34.3095 10.7213 34.166 11.7134 34.166C13.2315 34.166 14.391 34.5187 15.1919 35.2239C15.9928 35.9172 16.3813 36.8615 16.3574 38.0569H14.403C14.3671 37.3038 14.0922 36.7599 13.5782 36.4252C13.0642 36.0905 12.4127 35.9232 11.6238 35.9232C10.9185 35.9232 10.3268 36.0487 9.8487 36.2997C9.37056 36.5508 9.13149 36.9572 9.13149 37.519C9.13149 37.7581 9.18528 37.9672 9.29286 38.1466C9.41239 38.3139 9.60365 38.4693 9.86663 38.6127C10.1296 38.7442 10.4882 38.8757 10.9424 39.0072C11.4086 39.1267 11.9764 39.2582 12.6458 39.4017C13.2196 39.4973 13.7575 39.6288 14.2595 39.7961C14.7616 39.9635 15.1979 40.1727 15.5684 40.4237C15.951 40.6747 16.2498 40.9975 16.465 41.3919C16.6801 41.7864 16.7877 42.2705 16.7877 42.8443C16.7877 43.5017 16.6204 44.0874 16.2857 44.6014C15.951 45.1035 15.437 45.5039 14.7437 45.8028C14.0623 46.0897 13.1777 46.2331 12.09 46.2331C11.2652 46.2331 10.542 46.1375 9.92042 45.9462C9.31079 45.743 8.79081 45.486 8.36049 45.1752C7.93016 44.8525 7.58351 44.5058 7.32053 44.1353C7.06951 43.7647 6.89021 43.4061 6.78262 43.0594C6.687 42.7008 6.65711 42.396 6.69297 42.145ZM29.1028 43.2746V41.5354H36.0239V43.2746H29.1028ZM26.4133 46L31.4876 34.3812H33.6751L38.7852 46H36.5798L32.1331 35.5108H33.0296L28.6008 46H26.4133ZM51.2568 34.3812V44.2428H58.5006V46H49.2127V34.3812H51.2568ZM75.1808 46.2152C73.8181 46.2152 72.6287 45.9701 71.6127 45.48C70.6086 44.9899 69.8256 44.2966 69.2638 43.4001C68.7139 42.5036 68.439 41.4338 68.439 40.1906C68.439 38.9474 68.7139 37.8776 69.2638 36.9811C69.8256 36.0726 70.6086 35.3793 71.6127 34.9012C72.6287 34.4111 73.8181 34.166 75.1808 34.166C76.5554 34.166 77.7448 34.4111 78.7489 34.9012C79.753 35.3793 80.53 36.0726 81.0798 36.9811C81.6417 37.8776 81.9226 38.9474 81.9226 40.1906C81.9226 41.4338 81.6417 42.5036 81.0798 43.4001C80.53 44.2966 79.753 44.9899 78.7489 45.48C77.7448 45.9701 76.5554 46.2152 75.1808 46.2152ZM75.1808 44.4221C76.0893 44.4221 76.8901 44.2667 77.5834 43.956C78.2767 43.6452 78.8206 43.179 79.2151 42.5574C79.6215 41.9239 79.8247 41.1349 79.8247 40.1906C79.8247 39.2582 79.6215 38.4812 79.2151 37.8597C78.8206 37.2261 78.2767 36.754 77.5834 36.4432C76.8901 36.1204 76.0893 35.9591 75.1808 35.9591C74.2843 35.9591 73.4834 36.1204 72.7781 36.4432C72.0729 36.754 71.517 37.2261 71.1106 37.8597C70.7042 38.4812 70.501 39.2582 70.501 40.1906C70.501 41.1349 70.7042 41.9239 71.1106 42.5574C71.517 43.179 72.0729 43.6452 72.7781 43.956C73.4834 44.2667 74.2843 44.4221 75.1808 44.4221ZM103.698 43.8842L103.088 44.1173V34.3812H105.114V46H103.088L94.3741 36.5508L95.0017 36.3177V46H92.9576V34.3812H95.0017L103.698 43.8842Z" fill="black"/>
<path d="M191.239 34.3812L186.506 42.2167V46H184.462V42.2167L179.728 34.3812H182.077L186.075 41.2306H184.964L188.908 34.3812H191.239ZM203.765 41.0513V44.2428H211.923V46H201.721V34.3812H211.905V36.1384H203.765V39.3658H210.435V41.0513H203.765ZM224.905 39.312H233.44V41.0513H224.905V39.312ZM233.153 34.3812H235.179V46H233.153V34.3812ZM223.094 34.3812H225.138V46H223.094V34.3812ZM248.718 41.0513V44.2428H256.876V46H246.674V34.3812H256.858V36.1384H248.718V39.3658H255.388V41.0513H248.718ZM270.091 34.3812V44.2428H277.335V46H268.047V34.3812H270.091ZM290.327 41.0513V44.2428H298.485V46H288.282V34.3812H298.467V36.1384H290.327V39.3658H296.997V41.0513H290.327ZM311.7 41.0513V44.2428H319.858V46H309.656V34.3812H319.84V36.1384H311.7V39.3658H318.37V41.0513H311.7Z" fill="#D9B79A"/>
<path fill-rule="evenodd" clip-rule="evenodd" d="M162.145 10.946C157.321 11.4413 158.682 15.3954 153.529 19.6391C150.314 22.2761 148.087 23.6342 145.614 25.5718C140.008 29.9802 136.833 35.0058 136.957 42.4213C138.276 30.4739 147.923 24.8709 151.88 21.9454C146.15 26.971 143.511 31.1322 141.821 34.5526C138.235 41.8019 138.07 47.1583 145.285 52.4721C148.253 54.6153 152.375 57.2096 153.076 63.1833C151.303 60.1347 147.304 56.7569 144.007 55.8089C150.809 61.0417 153.983 65.0368 152.952 72C150.684 62.4429 139.472 59.5179 134.236 51.3185C121.993 30.6795 145.16 26.971 151.838 17.0433C144.748 24.0475 134.731 25.7774 129.949 36.1169C132.669 25.5718 136.709 22.3586 139.842 20.0098C145.325 16.0132 151.096 14.6945 153.734 7.19803C149.365 14.655 145.201 14.9842 138.935 19.1849C133.947 22.5232 129.165 27.6724 127.929 39.3301C122.612 28.2067 128.671 12.6349 136.627 5.67321C144.872 -1.53664 155.095 -2.9784 163.546 7.89738C174.595 14.4063 178.552 29.1552 163.794 47.611C174.429 32.6976 172.038 19.5566 165.772 14.2412C173.151 24.9524 168.493 35.0463 164.165 43.9861C161.485 49.5055 162.269 50.7417 164.618 56.3452C160.372 52.6367 161.526 49.2174 156.992 45.5104C153.9 43.0381 150.066 41.5138 147.469 38.7123C146.067 37.1464 145.614 35.458 147.469 31.2963C148.458 29.1962 149.53 28.8255 150.725 29.6074C151.838 30.3909 155.549 33.6861 156.044 30.8846C156.167 30.1012 156.003 29.6484 156.867 29.2783C157.444 29.0311 158.022 29.1547 157.857 28.3302C157.774 27.9185 157.898 27.7539 158.393 27.6719C158.97 27.5483 158.929 27.3427 158.846 26.6829C158.599 25.076 159.876 25.2821 160.66 25.035C161.402 24.7879 161.402 24.2121 161.196 23.5517C161.072 23.1815 160.99 22.8108 160.866 22.4406C160.495 21.1219 160.454 20.2565 160.619 19.351L162.061 19.1849L160.784 18.6911C161.897 15.9717 162.721 14.737 162.144 10.9465L162.145 10.946ZM165.484 20.2565C166.226 23.5517 165.937 27.0136 165.112 30.1858C163.67 35.6642 161.32 37.5176 160.207 44.1922C160.537 37.1469 162.681 34.8407 164.123 29.8135C164.907 27.0956 165.401 23.9649 165.484 20.2565ZM143.511 3.11884C133.371 7.85585 127.847 19.2669 127.682 30.2678C129.785 19.5156 133.206 10.2872 143.511 3.11884Z" fill="#CDA582"/>
</svg>
