<svg width="277" height="68" viewBox="0 0 277 68" fill="none" xmlns="http://www.w3.org/2000/svg">
<path d="M0.907605 36.3592H2.78729C2.83245 36.7769 2.99615 37.1551 3.27838 37.4937C3.57191 37.8211 3.95575 38.0808 4.4299 38.2727C4.91535 38.4533 5.46853 38.5437 6.08945 38.5437C6.64263 38.5437 7.09985 38.4759 7.46111 38.3405C7.82237 38.205 8.08767 38.0187 8.25702 37.7816C8.43765 37.5333 8.52796 37.2454 8.52796 36.918C8.52796 36.5906 8.42071 36.3366 8.20621 36.156C8.003 35.964 7.6869 35.806 7.2579 35.6818C6.8289 35.5463 6.28137 35.4165 5.61529 35.2923C5.06211 35.1907 4.52586 35.0552 4.00655 34.8859C3.48724 34.7166 3.01873 34.5021 2.60102 34.2424C2.1946 33.9827 1.87285 33.6666 1.63577 33.2941C1.39869 32.9102 1.28016 32.4587 1.28016 31.9394C1.28016 31.3523 1.44385 30.8217 1.77125 30.3475C2.10993 29.8734 2.60666 29.5008 3.26145 29.2299C3.91623 28.959 4.71214 28.8235 5.64916 28.8235C7.08292 28.8235 8.17799 29.1565 8.93438 29.8226C9.69077 30.4774 10.0577 31.3692 10.0351 32.4982H8.18928C8.15541 31.7869 7.89575 31.2733 7.41031 30.9572C6.92486 30.6411 6.30959 30.483 5.56449 30.483C4.89841 30.483 4.33959 30.6016 3.88801 30.8386C3.43643 31.0757 3.21065 31.4596 3.21065 31.9902C3.21065 32.2159 3.26145 32.4135 3.36305 32.5829C3.47595 32.7409 3.65658 32.8877 3.90495 33.0231C4.15331 33.1473 4.492 33.2715 4.92099 33.3957C5.36128 33.5086 5.89753 33.6328 6.52973 33.7682C7.07163 33.8586 7.57965 33.9827 8.05381 34.1408C8.52796 34.2988 8.94003 34.4964 9.29 34.7335C9.65126 34.9706 9.93349 35.2754 10.1367 35.6479C10.3399 36.0205 10.4415 36.4777 10.4415 37.0196C10.4415 37.6405 10.2835 38.1937 9.96736 38.6791C9.65126 39.1533 9.16581 39.5315 8.51103 39.8137C7.86753 40.0847 7.03211 40.2201 6.00478 40.2201C5.22581 40.2201 4.5428 40.1298 3.95575 39.9492C3.37999 39.7573 2.8889 39.5146 2.48248 39.221C2.07606 38.9162 1.74867 38.5888 1.5003 38.2389C1.26322 37.8889 1.09388 37.5502 0.992276 37.2228C0.901961 36.8841 0.873737 36.5962 0.907605 36.3592ZM21.4798 37.426V35.7834H28.0164V37.426H21.4798ZM18.9397 40L23.732 29.0267H25.798L30.6242 40H28.5413L24.3417 30.0935H25.1884L21.0056 40H18.9397ZM41.8103 29.0267V38.3405H48.6516V40H39.8798V29.0267H41.8103ZM63.8124 40.2032C62.5255 40.2032 61.4022 39.9718 60.4426 39.5089C59.4942 39.046 58.7548 38.3913 58.2242 37.5446C57.7049 36.6978 57.4452 35.6874 57.4452 34.5133C57.4452 33.3392 57.7049 32.3288 58.2242 31.4821C58.7548 30.6241 59.4942 29.9694 60.4426 29.5178C61.4022 29.0549 62.5255 28.8235 63.8124 28.8235C65.1107 28.8235 66.234 29.0549 67.1823 29.5178C68.1307 29.9694 68.8645 30.6241 69.3838 31.4821C69.9144 32.3288 70.1797 33.3392 70.1797 34.5133C70.1797 35.6874 69.9144 36.6978 69.3838 37.5446C68.8645 38.3913 68.1307 39.046 67.1823 39.5089C66.234 39.9718 65.1107 40.2032 63.8124 40.2032ZM63.8124 38.5098C64.6704 38.5098 65.4268 38.363 66.0816 38.0695C66.7364 37.776 67.2501 37.3357 67.6226 36.7486C68.0065 36.1503 68.1984 35.4052 68.1984 34.5133C68.1984 33.6328 68.0065 32.899 67.6226 32.3119C67.2501 31.7136 66.7364 31.2676 66.0816 30.9741C65.4268 30.6693 64.6704 30.5169 63.8124 30.5169C62.9657 30.5169 62.2094 30.6693 61.5433 30.9741C60.8772 31.2676 60.3522 31.7136 59.9684 32.3119C59.5846 32.899 59.3926 33.6328 59.3926 34.5133C59.3926 35.4052 59.5846 36.1503 59.9684 36.7486C60.3522 37.3357 60.8772 37.776 61.5433 38.0695C62.2094 38.363 62.9657 38.5098 63.8124 38.5098ZM90.1526 38.0018L89.5768 38.2219V29.0267H91.4904V40H89.5768L81.3468 31.0757L81.9395 30.8556V40H80.009V29.0267H81.9395L90.1526 38.0018Z" fill="#E9E9E9"/>
<path d="M157.751 29.0267L153.281 36.4269V40H151.35V36.4269L146.879 29.0267H149.098L152.874 35.4955H151.824L155.55 29.0267H157.751ZM168.988 35.3262V38.3405H176.693V40H167.058V29.0267H176.676V30.6862H168.988V33.7344H175.288V35.3262H168.988ZM188.361 33.6836H196.422V35.3262H188.361V33.6836ZM196.151 29.0267H198.065V40H196.151V29.0267ZM186.651 29.0267H188.581V40H186.651V29.0267ZM210.258 35.3262V38.3405H217.964V40H208.328V29.0267H217.947V30.6862H210.258V33.7344H216.558V35.3262H210.258ZM229.852 29.0267V38.3405H236.693V40H227.921V29.0267H229.852ZM248.37 35.3262V38.3405H256.075V40H246.44V29.0267H256.058V30.6862H248.37V33.7344H254.67V35.3262H248.37ZM267.964 35.3262V38.3405H275.669V40H266.033V29.0267H275.652V30.6862H267.964V33.7344H274.263V35.3262H267.964Z" fill="#F1E4D9"/>
<path fill-rule="evenodd" clip-rule="evenodd" d="M133.748 10.3379C129.193 10.8057 130.478 14.5401 125.611 18.5481C122.574 21.0385 120.472 22.3212 118.136 24.1512C112.841 28.3146 109.843 33.0611 109.96 40.0645C111.205 28.7809 120.316 23.4892 124.053 20.7262C118.642 25.4726 116.15 29.4027 114.554 32.633C111.166 39.4796 111.011 44.5384 117.825 49.557C120.628 51.5811 124.521 54.0313 125.183 59.6731C123.508 56.7938 119.732 53.6037 116.618 52.7084C123.042 57.6505 126.04 61.4236 125.066 68C122.924 58.9739 112.335 56.2113 107.39 48.4674C95.8266 28.9751 117.707 25.4726 124.014 16.0964C117.318 22.7115 107.857 24.3453 103.341 34.1104C105.91 24.1512 109.725 21.1165 112.684 18.8982C117.863 15.1236 123.313 13.8781 125.805 6.79814C121.678 13.8408 117.746 14.1517 111.828 18.119C107.117 21.2719 102.601 26.1351 101.433 37.1451C96.4114 26.6396 102.134 11.933 109.648 5.35803C117.435 -1.45127 127.09 -2.81294 135.072 7.45863C145.506 13.606 149.244 27.5355 135.306 44.966C145.35 30.881 143.092 18.4701 137.174 13.4501C144.143 23.5662 139.744 33.0993 135.656 41.5424C133.125 46.7552 133.865 47.9227 136.084 53.2149C132.074 49.7124 133.163 46.4831 128.882 42.982C125.962 40.6471 122.341 39.2074 119.887 36.5616C118.564 35.0827 118.136 33.4882 119.887 29.5576C120.822 27.5742 121.834 27.2241 122.963 27.9626C124.014 28.7025 127.518 31.8146 127.986 29.1688C128.103 28.4289 127.947 28.0013 128.764 27.6517C129.309 27.4183 129.854 27.535 129.698 26.7563C129.62 26.3675 129.737 26.2121 130.204 26.1346C130.749 26.0179 130.711 25.8237 130.633 25.2005C130.399 23.6829 131.606 23.8776 132.346 23.6442C133.046 23.4108 133.046 22.867 132.852 22.2433C132.735 21.8937 132.658 21.5436 132.541 21.1939C132.19 19.9485 132.151 19.1311 132.307 18.2759L133.669 18.119L132.463 17.6527C133.514 15.0844 134.292 13.9183 133.748 10.3384L133.748 10.3379ZM136.902 19.1311C137.602 22.2433 137.33 25.5128 136.551 28.5088C135.189 33.6828 132.969 35.4333 131.918 41.7371C132.229 35.0832 134.254 32.9051 135.617 28.1572C136.357 25.5903 136.824 22.6336 136.902 19.1311ZM116.15 2.94557C106.573 7.41941 101.356 18.1965 101.2 28.5863C103.186 18.4314 106.417 9.71565 116.15 2.94557Z" fill="#CDA582"/>
</svg>
